<svg preserveAspectRatio="none" overflow="visible" style="display: block;" width="132.166" height="17.85" viewBox="0 0 132.166 17.85" fill="none" xmlns="http://www.w3.org/2000/svg">
<g id="DITHERATE">
<path d="M3.8 0.750001V0H4.55V0.750001H3.8ZM4.75 0.750001V0H5.5V0.750001H4.75ZM7.6 0.750001V0H8.35V0.750001H7.6ZM2.85 0.750001V0H3.6V0.750001H2.85ZM1.9 0.750001V0H2.65V0.750001H1.9ZM0.95 0.750001V0H1.7V0.750001H0.95ZM5.7 0.750001V0H6.45V0.750001H5.7ZM0 0.750001V0H0.75V0.750001H0ZM6.65 0.750001V0H7.4V0.750001H6.65ZM4.75 1.7V0.950001H5.5V1.7H4.75ZM3.8 1.7V0.950001H4.55V1.7H3.8ZM7.6 1.7V0.950001H8.35V1.7H7.6ZM2.85 1.7V0.950001H3.6V1.7H2.85ZM9.5 1.7V0.950001H10.25V1.7H9.5ZM1.9 1.7V0.950001H2.65V1.7H1.9ZM6.65 1.7V0.950001H7.4V1.7H6.65ZM5.7 1.7V0.950001H6.45V1.7H5.7ZM8.55 1.7V0.950001H9.3V1.7H8.55ZM0.95 1.7V0.950001H1.7V1.7H0.95ZM0 1.7V0.950001H0.75V1.7H0ZM9.5 2.65V1.9H10.25V2.65H9.5ZM10.45 2.65V1.9H11.2V2.65H10.45ZM0 2.65V1.9H0.75V2.65H0ZM8.55 2.65V1.9H9.3V2.65H8.55ZM0.95 2.65V1.9H1.7V2.65H0.95ZM0 3.6V2.85H0.75V3.6H0ZM9.5 3.6V2.85H10.25V3.6H9.5ZM10.45 3.6V2.85H11.2V3.6H10.45ZM0.95 3.6V2.85H1.7V3.6H0.95ZM0.95 4.55V3.8H1.7V4.55H0.95ZM11.4 4.55V3.8H12.15V4.55H11.4ZM10.45 4.55V3.8H11.2V4.55H10.45ZM0 4.55V3.8H0.75V4.55H0ZM11.4 5.5V4.75H12.15V5.5H11.4ZM10.45 5.5V4.75H11.2V5.5H10.45ZM0.95 5.5V4.75H1.7V5.5H0.95ZM0 5.5V4.75H0.75V5.5H0ZM0.95 6.45V5.7H1.7V6.45H0.95ZM0 6.45V5.7H0.75V6.45H0ZM11.4 6.45V5.7H12.15V6.45H11.4ZM12.35 6.45V5.7H13.1V6.45H12.35ZM0 7.4V6.65H0.75V7.4H0ZM12.35 7.4V6.65H13.1V7.4H12.35ZM0.95 7.4V6.65H1.7V7.4H0.95ZM11.4 7.4V6.65H12.15V7.4H11.4ZM0 8.35V7.6H0.75V8.35H0ZM12.35 8.35V7.6H13.1V8.35H12.35ZM0.95 8.35V7.6H1.7V8.35H0.95ZM11.4 8.35V7.6H12.15V8.35H11.4ZM12.35 9.3V8.55H13.1V9.3H12.35ZM0 9.3V8.55H0.75V9.3H0ZM0.95 9.3V8.55H1.7V9.3H0.95ZM11.4 9.3V8.55H12.15V9.3H11.4ZM11.4 10.25V9.5H12.15V10.25H11.4ZM0 10.25V9.5H0.75V10.25H0ZM12.35 10.25V9.5H13.1V10.25H12.35ZM0.95 10.25V9.5H1.7V10.25H0.95ZM0.95 11.2V10.45H1.7V11.2H0.95ZM11.4 11.2V10.45H12.15V11.2H11.4ZM0 11.2V10.45H0.75V11.2H0ZM12.35 11.2V10.45H13.1V11.2H12.35ZM0.95 12.15V11.4H1.7V12.15H0.95ZM0 12.15V11.4H0.75V12.15H0ZM12.35 12.15V11.4H13.1V12.15H12.35ZM11.4 12.15V11.4H12.15V12.15H11.4ZM11.4 13.1V12.35H12.15V13.1H11.4ZM0.95 13.1V12.35H1.7V13.1H0.95ZM0 13.1V12.35H0.75V13.1H0ZM10.45 13.1V12.35H11.2V13.1H10.45ZM10.45 14.05V13.3H11.2V14.05H10.45ZM11.4 14.05V13.3H12.15V14.05H11.4ZM0.95 14.05V13.3H1.7V14.05H0.95ZM0 14.05V13.3H0.75V14.05H0ZM10.45 15V14.25H11.2V15H10.45ZM9.5 15V14.25H10.25V15H9.5ZM0 15V14.25H0.75V15H0ZM0.95 15V14.25H1.7V15H0.95ZM0.95 15.95V15.2H1.7V15.95H0.95ZM8.55 15.95V15.2H9.3V15.95H8.55ZM0 15.95V15.2H0.75V15.95H0ZM9.5 15.95V15.2H10.25V15.95H9.5ZM10.45 15.95V15.2H11.2V15.95H10.45ZM3.8 16.9V16.15H4.55V16.9H3.8ZM5.7 16.9V16.15H6.45V16.9H5.7ZM4.75 16.9V16.15H5.5V16.9H4.75ZM6.65 16.9V16.15H7.4V16.9H6.65ZM7.6 16.9V16.15H8.35V16.9H7.6ZM9.5 16.9V16.15H10.25V16.9H9.5ZM2.85 16.9V16.15H3.6V16.9H2.85ZM8.55 16.9V16.15H9.3V16.9H8.55ZM1.9 16.9V16.15H2.65V16.9H1.9ZM0.95 16.9V16.15H1.7V16.9H0.95ZM0 16.9V16.15H0.75V16.9H0ZM2.85 17.85V17.1H3.6V17.85H2.85ZM3.8 17.85V17.1H4.55V17.85H3.8ZM7.6 17.85V17.1H8.35V17.85H7.6ZM1.9 17.85V17.1H2.65V17.85H1.9ZM0.95 17.85V17.1H1.7V17.85H0.95ZM4.75 17.85V17.1H5.5V17.85H4.75ZM0 17.85V17.1H0.75V17.85H0ZM6.65 17.85V17.1H7.4V17.85H6.65ZM5.7 17.85V17.1H6.45V17.85H5.7Z" fill="white"/>
<path d="M17.8398 0.750001V0H18.5898V0.750001H17.8398ZM18.7898 0.750001V0H19.5398V0.750001H18.7898ZM17.8398 1.7V0.950001H18.5898V1.7H17.8398ZM18.7898 1.7V0.950001H19.5398V1.7H18.7898ZM18.7898 2.65V1.9H19.5398V2.65H18.7898ZM17.8398 2.65V1.9H18.5898V2.65H17.8398ZM18.7898 3.6V2.85H19.5398V3.6H18.7898ZM17.8398 3.6V2.85H18.5898V3.6H17.8398ZM17.8398 4.55V3.8H18.5898V4.55H17.8398ZM18.7898 4.55V3.8H19.5398V4.55H18.7898ZM17.8398 5.5V4.75H18.5898V5.5H17.8398ZM18.7898 5.5V4.75H19.5398V5.5H18.7898ZM17.8398 6.45V5.7H18.5898V6.45H17.8398ZM18.7898 6.45V5.7H19.5398V6.45H18.7898ZM17.8398 7.4V6.65H18.5898V7.4H17.8398ZM18.7898 7.4V6.65H19.5398V7.4H18.7898ZM17.8398 8.35V7.6H18.5898V8.35H17.8398ZM18.7898 8.35V7.6H19.5398V8.35H18.7898ZM18.7898 9.3V8.55H19.5398V9.3H18.7898ZM17.8398 9.3V8.55H18.5898V9.3H17.8398ZM18.7898 10.25V9.5H19.5398V10.25H18.7898ZM17.8398 10.25V9.5H18.5898V10.25H17.8398ZM18.7898 11.2V10.45H19.5398V11.2H18.7898ZM17.8398 11.2V10.45H18.5898V11.2H17.8398ZM17.8398 12.15V11.4H18.5898V12.15H17.8398ZM18.7898 12.15V11.4H19.5398V12.15H18.7898ZM17.8398 13.1V12.35H18.5898V13.1H17.8398ZM18.7898 13.1V12.35H19.5398V13.1H18.7898ZM17.8398 14.05V13.3H18.5898V14.05H17.8398ZM18.7898 14.05V13.3H19.5398V14.05H18.7898ZM17.8398 15V14.25H18.5898V15H17.8398ZM18.7898 15V14.25H19.5398V15H18.7898ZM17.8398 15.95V15.2H18.5898V15.95H17.8398ZM18.7898 15.95V15.2H19.5398V15.95H18.7898ZM17.8398 16.9V16.15H18.5898V16.9H17.8398ZM18.7898 16.9V16.15H19.5398V16.9H18.7898ZM17.8398 17.85V17.1H18.5898V17.85H17.8398ZM18.7898 17.85V17.1H19.5398V17.85H18.7898Z" fill="white"/>
<path d="M25.2283 0.750001V0H25.9783V0.750001H25.2283ZM29.9783 0.750001V0H30.7283V0.750001H29.9783ZM35.6783 0.750001V0H36.4283V0.750001H35.6783ZM28.0783 0.750001V0H28.8283V0.750001H28.0783ZM27.1283 0.750001V0H27.8783V0.750001H27.1283ZM26.1783 0.750001V0H26.9283V0.750001H26.1783ZM24.2783 0.750001V0H25.0283V0.750001H24.2783ZM29.0283 0.750001V0H29.7783V0.750001H29.0283ZM34.7283 0.750001V0H35.4783V0.750001H34.7283ZM33.7783 0.750001V0H34.5283V0.750001H33.7783ZM32.8283 0.750001V0H33.5783V0.750001H32.8283ZM31.8783 0.750001V0H32.6283V0.750001H31.8783ZM30.9283 0.750001V0H31.6783V0.750001H30.9283ZM23.3283 0.750001V0H24.0783V0.750001H23.3283ZM24.2783 1.7V0.950001H25.0283V1.7H24.2783ZM32.8283 1.7V0.950001H33.5783V1.7H32.8283ZM26.1783 1.7V0.950001H26.9283V1.7H26.1783ZM27.1283 1.7V0.950001H27.8783V1.7H27.1283ZM28.0783 1.7V0.950001H28.8283V1.7H28.0783ZM30.9283 1.7V0.950001H31.6783V1.7H30.9283ZM31.8783 1.7V0.950001H32.6283V1.7H31.8783ZM29.9783 1.7V0.950001H30.7283V1.7H29.9783ZM25.2283 1.7V0.950001H25.9783V1.7H25.2283ZM33.7783 1.7V0.950001H34.5283V1.7H33.7783ZM23.3283 1.7V0.950001H24.0783V1.7H23.3283ZM29.0283 1.7V0.950001H29.7783V1.7H29.0283ZM35.6783 1.7V0.950001H36.4283V1.7H35.6783ZM34.7283 1.7V0.950001H35.4783V1.7H34.7283ZM29.9783 2.65V1.9H30.7283V2.65H29.9783ZM29.0283 2.65V1.9H29.7783V2.65H29.0283ZM29.9783 3.6V2.85H30.7283V3.6H29.9783ZM29.0283 3.6V2.85H29.7783V3.6H29.0283ZM29.9783 4.55V3.8H30.7283V4.55H29.9783ZM29.0283 4.55V3.8H29.7783V4.55H29.0283ZM29.9783 5.5V4.75H30.7283V5.5H29.9783ZM29.0283 5.5V4.75H29.7783V5.5H29.0283ZM29.9783 6.45V5.7H30.7283V6.45H29.9783ZM29.0283 6.45V5.7H29.7783V6.45H29.0283ZM29.0283 7.4V6.65H29.7783V7.4H29.0283ZM29.9783 7.4V6.65H30.7283V7.4H29.9783ZM29.9783 8.35V7.6H30.7283V8.35H29.9783ZM29.0283 8.35V7.6H29.7783V8.35H29.0283ZM29.0283 9.3V8.55H29.7783V9.3H29.0283ZM29.9783 9.3V8.55H30.7283V9.3H29.9783ZM29.9783 10.25V9.5H30.7283V10.25H29.9783ZM29.0283 10.25V9.5H29.7783V10.25H29.0283ZM29.9783 11.2V10.45H30.7283V11.2H29.9783ZM29.0283 11.2V10.45H29.7783V11.2H29.0283ZM29.9783 12.15V11.4H30.7283V12.15H29.9783ZM29.0283 12.15V11.4H29.7783V12.15H29.0283ZM29.9783 13.1V12.35H30.7283V13.1H29.9783ZM29.0283 13.1V12.35H29.7783V13.1H29.0283ZM29.9783 14.05V13.3H30.7283V14.05H29.9783ZM29.0283 14.05V13.3H29.7783V14.05H29.0283ZM29.9783 15V14.25H30.7283V15H29.9783ZM29.0283 15V14.25H29.7783V15H29.0283ZM29.9783 15.95V15.2H30.7283V15.95H29.9783ZM29.0283 15.95V15.2H29.7783V15.95H29.0283ZM29.9783 16.9V16.15H30.7283V16.9H29.9783ZM29.0283 16.9V16.15H29.7783V16.9H29.0283ZM29.9783 17.85V17.1H30.7283V17.85H29.9783ZM29.0283 17.85V17.1H29.7783V17.85H29.0283Z" fill="white"/>
<path d="M52.5883 0.750001V0H53.3383V0.750001H52.5883ZM51.6383 0.750001V0H52.3883V0.750001H51.6383ZM41.1883 0.750001V0H41.9383V0.750001H41.1883ZM40.2383 0.750001V0H40.9883V0.750001H40.2383ZM51.6383 1.7V0.950001H52.3883V1.7H51.6383ZM52.5883 1.7V0.950001H53.3383V1.7H52.5883ZM41.1883 1.7V0.950001H41.9383V1.7H41.1883ZM40.2383 1.7V0.950001H40.9883V1.7H40.2383ZM41.1883 2.65V1.9H41.9383V2.65H41.1883ZM51.6383 2.65V1.9H52.3883V2.65H51.6383ZM52.5883 2.65V1.9H53.3383V2.65H52.5883ZM40.2383 2.65V1.9H40.9883V2.65H40.2383ZM51.6383 3.6V2.85H52.3883V3.6H51.6383ZM40.2383 3.6V2.85H40.9883V3.6H40.2383ZM52.5883 3.6V2.85H53.3383V3.6H52.5883ZM41.1883 3.6V2.85H41.9383V3.6H41.1883ZM40.2383 4.55V3.8H40.9883V4.55H40.2383ZM51.6383 4.55V3.8H52.3883V4.55H51.6383ZM52.5883 4.55V3.8H53.3383V4.55H52.5883ZM41.1883 4.55V3.8H41.9383V4.55H41.1883ZM40.2383 5.5V4.75H40.9883V5.5H40.2383ZM51.6383 5.5V4.75H52.3883V5.5H51.6383ZM52.5883 5.5V4.75H53.3383V5.5H52.5883ZM41.1883 5.5V4.75H41.9383V5.5H41.1883ZM40.2383 6.45V5.7H40.9883V6.45H40.2383ZM51.6383 6.45V5.7H52.3883V6.45H51.6383ZM52.5883 6.45V5.7H53.3383V6.45H52.5883ZM41.1883 6.45V5.7H41.9383V6.45H41.1883ZM41.1883 7.4V6.65H41.9383V7.4H41.1883ZM40.2383 7.4V6.65H40.9883V7.4H40.2383ZM52.5883 7.4V6.65H53.3383V7.4H52.5883ZM51.6383 7.4V6.65H52.3883V7.4H51.6383ZM49.7383 8.35V7.6H50.4883V8.35H49.7383ZM48.7883 8.35V7.6H49.5383V8.35H48.7883ZM47.8383 8.35V7.6H48.5883V8.35H47.8383ZM51.6383 8.35V7.6H52.3883V8.35H51.6383ZM52.5883 8.35V7.6H53.3383V8.35H52.5883ZM42.1383 8.35V7.6H42.8883V8.35H42.1383ZM46.8883 8.35V7.6H47.6383V8.35H46.8883ZM45.9383 8.35V7.6H46.6883V8.35H45.9383ZM44.9883 8.35V7.6H45.7383V8.35H44.9883ZM43.0883 8.35V7.6H43.8383V8.35H43.0883ZM44.0383 8.35V7.6H44.7883V8.35H44.0383ZM50.6883 8.35V7.6H51.4383V8.35H50.6883ZM41.1883 8.35V7.6H41.9383V8.35H41.1883ZM40.2383 8.35V7.6H40.9883V8.35H40.2383ZM48.7883 9.3V8.55H49.5383V9.3H48.7883ZM47.8383 9.3V8.55H48.5883V9.3H47.8383ZM41.1883 9.3V8.55H41.9383V9.3H41.1883ZM51.6383 9.3V8.55H52.3883V9.3H51.6383ZM40.2383 9.3V8.55H40.9883V9.3H40.2383ZM52.5883 9.3V8.55H53.3383V9.3H52.5883ZM42.1383 9.3V8.55H42.8883V9.3H42.1383ZM43.0883 9.3V8.55H43.8383V9.3H43.0883ZM44.0383 9.3V8.55H44.7883V9.3H44.0383ZM44.9883 9.3V8.55H45.7383V9.3H44.9883ZM45.9383 9.3V8.55H46.6883V9.3H45.9383ZM46.8883 9.3V8.55H47.6383V9.3H46.8883ZM50.6883 9.3V8.55H51.4383V9.3H50.6883ZM49.7383 9.3V8.55H50.4883V9.3H49.7383ZM51.6383 10.25V9.5H52.3883V10.25H51.6383ZM40.2383 10.25V9.5H40.9883V10.25H40.2383ZM52.5883 10.25V9.5H53.3383V10.25H52.5883ZM41.1883 10.25V9.5H41.9383V10.25H41.1883ZM51.6383 11.2V10.45H52.3883V11.2H51.6383ZM40.2383 11.2V10.45H40.9883V11.2H40.2383ZM41.1883 11.2V10.45H41.9383V11.2H41.1883ZM52.5883 11.2V10.45H53.3383V11.2H52.5883ZM41.1883 12.15V11.4H41.9383V12.15H41.1883ZM52.5883 12.15V11.4H53.3383V12.15H52.5883ZM40.2383 12.15V11.4H40.9883V12.15H40.2383ZM51.6383 12.15V11.4H52.3883V12.15H51.6383ZM40.2383 13.1V12.35H40.9883V13.1H40.2383ZM51.6383 13.1V12.35H52.3883V13.1H51.6383ZM41.1883 13.1V12.35H41.9383V13.1H41.1883ZM52.5883 13.1V12.35H53.3383V13.1H52.5883ZM41.1883 14.05V13.3H41.9383V14.05H41.1883ZM40.2383 14.05V13.3H40.9883V14.05H40.2383ZM52.5883 14.05V13.3H53.3383V14.05H52.5883ZM51.6383 14.05V13.3H52.3883V14.05H51.6383ZM52.5883 15V14.25H53.3383V15H52.5883ZM40.2383 15V14.25H40.9883V15H40.2383ZM51.6383 15V14.25H52.3883V15H51.6383ZM41.1883 15V14.25H41.9383V15H41.1883ZM51.6383 15.95V15.2H52.3883V15.95H51.6383ZM52.5883 15.95V15.2H53.3383V15.95H52.5883ZM41.1883 15.95V15.2H41.9383V15.95H41.1883ZM40.2383 15.95V15.2H40.9883V15.95H40.2383ZM52.5883 16.9V16.15H53.3383V16.9H52.5883ZM51.6383 16.9V16.15H52.3883V16.9H51.6383ZM41.1883 16.9V16.15H41.9383V16.9H41.1883ZM40.2383 16.9V16.15H40.9883V16.9H40.2383ZM52.5883 17.85V17.1H53.3383V17.85H52.5883ZM51.6383 17.85V17.1H52.3883V17.85H51.6383ZM41.1883 17.85V17.1H41.9383V17.85H41.1883ZM40.2383 17.85V17.1H40.9883V17.85H40.2383Z" fill="white"/>
<path d="M68.5281 0.750001V0H69.2781V0.750001H68.5281ZM58.0781 0.750001V0H58.8281V0.750001H58.0781ZM59.0281 0.750001V0H59.7781V0.750001H59.0281ZM67.5781 0.750001V0H68.3281V0.750001H67.5781ZM59.9781 0.750001V0H60.7281V0.750001H59.9781ZM60.9281 0.750001V0H61.6781V0.750001H60.9281ZM61.8781 0.750001V0H62.6281V0.750001H61.8781ZM62.8281 0.750001V0H63.5781V0.750001H62.8281ZM63.7781 0.750001V0H64.5281V0.750001H63.7781ZM64.7281 0.750001V0H65.4781V0.750001H64.7281ZM65.6781 0.750001V0H66.4281V0.750001H65.6781ZM66.6281 0.750001V0H67.3781V0.750001H66.6281ZM58.0781 1.7V0.950001H58.8281V1.7H58.0781ZM66.6281 1.7V0.950001H67.3781V1.7H66.6281ZM67.5781 1.7V0.950001H68.3281V1.7H67.5781ZM65.6781 1.7V0.950001H66.4281V1.7H65.6781ZM64.7281 1.7V0.950001H65.4781V1.7H64.7281ZM63.7781 1.7V0.950001H64.5281V1.7H63.7781ZM59.0281 1.7V0.950001H59.7781V1.7H59.0281ZM68.5281 1.7V0.950001H69.2781V1.7H68.5281ZM59.9781 1.7V0.950001H60.7281V1.7H59.9781ZM60.9281 1.7V0.950001H61.6781V1.7H60.9281ZM61.8781 1.7V0.950001H62.6281V1.7H61.8781ZM62.8281 1.7V0.950001H63.5781V1.7H62.8281ZM58.0781 2.65V1.9H58.8281V2.65H58.0781ZM59.0281 2.65V1.9H59.7781V2.65H59.0281ZM58.0781 3.6V2.85H58.8281V3.6H58.0781ZM59.0281 3.6V2.85H59.7781V3.6H59.0281ZM59.0281 4.55V3.8H59.7781V4.55H59.0281ZM58.0781 4.55V3.8H58.8281V4.55H58.0781ZM59.0281 5.5V4.75H59.7781V5.5H59.0281ZM58.0781 5.5V4.75H58.8281V5.5H58.0781ZM59.0281 6.45V5.7H59.7781V6.45H59.0281ZM58.0781 6.45V5.7H58.8281V6.45H58.0781ZM59.0281 7.4V6.65H59.7781V7.4H59.0281ZM58.0781 7.4V6.65H58.8281V7.4H58.0781ZM64.7281 8.35V7.6H65.4781V8.35H64.7281ZM65.6781 8.35V7.6H66.4281V8.35H65.6781ZM66.6281 8.35V7.6H67.3781V8.35H66.6281ZM67.5781 8.35V7.6H68.3281V8.35H67.5781ZM62.8281 8.35V7.6H63.5781V8.35H62.8281ZM61.8781 8.35V7.6H62.6281V8.35H61.8781ZM60.9281 8.35V7.6H61.6781V8.35H60.9281ZM59.9781 8.35V7.6H60.7281V8.35H59.9781ZM68.5281 8.35V7.6H69.2781V8.35H68.5281ZM63.7781 8.35V7.6H64.5281V8.35H63.7781ZM59.0281 8.35V7.6H59.7781V8.35H59.0281ZM58.0781 8.35V7.6H58.8281V8.35H58.0781ZM68.5281 9.3V8.55H69.2781V9.3H68.5281ZM67.5781 9.3V8.55H68.3281V9.3H67.5781ZM66.6281 9.3V8.55H67.3781V9.3H66.6281ZM65.6781 9.3V8.55H66.4281V9.3H65.6781ZM64.7281 9.3V8.55H65.4781V9.3H64.7281ZM63.7781 9.3V8.55H64.5281V9.3H63.7781ZM62.8281 9.3V8.55H63.5781V9.3H62.8281ZM61.8781 9.3V8.55H62.6281V9.3H61.8781ZM60.9281 9.3V8.55H61.6781V9.3H60.9281ZM59.9781 9.3V8.55H60.7281V9.3H59.9781ZM58.0781 9.3V8.55H58.8281V9.3H58.0781ZM59.0281 9.3V8.55H59.7781V9.3H59.0281ZM58.0781 10.25V9.5H58.8281V10.25H58.0781ZM59.0281 10.25V9.5H59.7781V10.25H59.0281ZM58.0781 11.2V10.45H58.8281V11.2H58.0781ZM59.0281 11.2V10.45H59.7781V11.2H59.0281ZM58.0781 12.15V11.4H58.8281V12.15H58.0781ZM59.0281 12.15V11.4H59.7781V12.15H59.0281ZM59.0281 13.1V12.35H59.7781V13.1H59.0281ZM58.0781 13.1V12.35H58.8281V13.1H58.0781ZM59.0281 14.05V13.3H59.7781V14.05H59.0281ZM58.0781 14.05V13.3H58.8281V14.05H58.0781ZM59.0281 15V14.25H59.7781V15H59.0281ZM58.0781 15V14.25H58.8281V15H58.0781ZM58.0781 15.95V15.2H58.8281V15.95H58.0781ZM59.0281 15.95V15.2H59.7781V15.95H59.0281ZM59.0281 16.9V16.15H59.7781V16.9H59.0281ZM58.0781 16.9V16.15H58.8281V16.9H58.0781ZM65.6781 16.9V16.15H66.4281V16.9H65.6781ZM68.5281 16.9V16.15H69.2781V16.9H68.5281ZM59.9781 16.9V16.15H60.7281V16.9H59.9781ZM60.9281 16.9V16.15H61.6781V16.9H60.9281ZM61.8781 16.9V16.15H62.6281V16.9H61.8781ZM62.8281 16.9V16.15H63.5781V16.9H62.8281ZM63.7781 16.9V16.15H64.5281V16.9H63.7781ZM64.7281 16.9V16.15H65.4781V16.9H64.7281ZM66.6281 16.9V16.15H67.3781V16.9H66.6281ZM67.5781 16.9V16.15H68.3281V16.9H67.5781ZM58.0781 17.85V17.1H58.8281V17.85H58.0781ZM68.5281 17.85V17.1H69.2781V17.85H68.5281ZM63.7781 17.85V17.1H64.5281V17.85H63.7781ZM59.9781 17.85V17.1H60.7281V17.85H59.9781ZM60.9281 17.85V17.1H61.6781V17.85H60.9281ZM61.8781 17.85V17.1H62.6281V17.85H61.8781ZM62.8281 17.85V17.1H63.5781V17.85H62.8281ZM64.7281 17.85V17.1H65.4781V17.85H64.7281ZM65.6781 17.85V17.1H66.4281V17.85H65.6781ZM66.6281 17.85V17.1H67.3781V17.85H66.6281ZM67.5781 17.85V17.1H68.3281V17.85H67.5781ZM59.0281 17.85V17.1H59.7781V17.85H59.0281Z" fill="white"/>
<path d="M75.9381 0.750001V0H76.6881V0.750001H75.9381ZM76.8881 0.750001V0H77.6381V0.750001H76.8881ZM78.7881 0.750001V0H79.5381V0.750001H78.7881ZM74.0381 0.750001V0H74.7881V0.750001H74.0381ZM74.9881 0.750001V0H75.7381V0.750001H74.9881ZM81.6381 0.750001V0H82.3881V0.750001H81.6381ZM77.8381 0.750001V0H78.5881V0.750001H77.8381ZM79.7381 0.750001V0H80.4881V0.750001H79.7381ZM80.6881 0.750001V0H81.4381V0.750001H80.6881ZM74.0381 1.7V0.950001H74.7881V1.7H74.0381ZM82.5881 1.7V0.950001H83.3381V1.7H82.5881ZM83.5381 1.7V0.950001H84.2881V1.7H83.5381ZM75.9381 1.7V0.950001H76.6881V1.7H75.9381ZM76.8881 1.7V0.950001H77.6381V1.7H76.8881ZM77.8381 1.7V0.950001H78.5881V1.7H77.8381ZM74.9881 1.7V0.950001H75.7381V1.7H74.9881ZM80.6881 1.7V0.950001H81.4381V1.7H80.6881ZM81.6381 1.7V0.950001H82.3881V1.7H81.6381ZM78.7881 1.7V0.950001H79.5381V1.7H78.7881ZM79.7381 1.7V0.950001H80.4881V1.7H79.7381ZM84.4881 2.65V1.9H85.2381V2.65H84.4881ZM74.9881 2.65V1.9H75.7381V2.65H74.9881ZM82.5881 2.65V1.9H83.3381V2.65H82.5881ZM83.5381 2.65V1.9H84.2881V2.65H83.5381ZM74.0381 2.65V1.9H74.7881V2.65H74.0381ZM83.5381 3.6V2.85H84.2881V3.6H83.5381ZM84.4881 3.6V2.85H85.2381V3.6H84.4881ZM74.0381 3.6V2.85H74.7881V3.6H74.0381ZM85.4381 3.6V2.85H86.1881V3.6H85.4381ZM74.9881 3.6V2.85H75.7381V3.6H74.9881ZM74.0381 4.55V3.8H74.7881V4.55H74.0381ZM85.4381 4.55V3.8H86.1881V4.55H85.4381ZM74.9881 4.55V3.8H75.7381V4.55H74.9881ZM84.4881 4.55V3.8H85.2381V4.55H84.4881ZM85.4381 5.5V4.75H86.1881V5.5H85.4381ZM84.4881 5.5V4.75H85.2381V5.5H84.4881ZM74.0381 5.5V4.75H74.7881V5.5H74.0381ZM74.9881 5.5V4.75H75.7381V5.5H74.9881ZM84.4881 6.45V5.7H85.2381V6.45H84.4881ZM85.4381 6.45V5.7H86.1881V6.45H85.4381ZM74.0381 6.45V5.7H74.7881V6.45H74.0381ZM74.9881 6.45V5.7H75.7381V6.45H74.9881ZM74.9881 7.4V6.65H75.7381V7.4H74.9881ZM84.4881 7.4V6.65H85.2381V7.4H84.4881ZM83.5381 7.4V6.65H84.2881V7.4H83.5381ZM74.0381 7.4V6.65H74.7881V7.4H74.0381ZM82.5881 8.35V7.6H83.3381V8.35H82.5881ZM74.9881 8.35V7.6H75.7381V8.35H74.9881ZM74.0381 8.35V7.6H74.7881V8.35H74.0381ZM83.5381 8.35V7.6H84.2881V8.35H83.5381ZM81.6381 9.3V8.55H82.3881V9.3H81.6381ZM80.6881 9.3V8.55H81.4381V9.3H80.6881ZM76.8881 9.3V8.55H77.6381V9.3H76.8881ZM79.7381 9.3V8.55H80.4881V9.3H79.7381ZM78.7881 9.3V8.55H79.5381V9.3H78.7881ZM77.8381 9.3V8.55H78.5881V9.3H77.8381ZM75.9381 9.3V8.55H76.6881V9.3H75.9381ZM74.0381 9.3V8.55H74.7881V9.3H74.0381ZM74.9881 9.3V8.55H75.7381V9.3H74.9881ZM80.6881 10.25V9.5H81.4381V10.25H80.6881ZM81.6381 10.25V9.5H82.3881V10.25H81.6381ZM82.5881 10.25V9.5H83.3381V10.25H82.5881ZM83.5381 10.25V9.5H84.2881V10.25H83.5381ZM78.7881 10.25V9.5H79.5381V10.25H78.7881ZM74.0381 10.25V9.5H74.7881V10.25H74.0381ZM74.9881 10.25V9.5H75.7381V10.25H74.9881ZM75.9381 10.25V9.5H76.6881V10.25H75.9381ZM76.8881 10.25V9.5H77.6381V10.25H76.8881ZM79.7381 10.25V9.5H80.4881V10.25H79.7381ZM77.8381 10.25V9.5H78.5881V10.25H77.8381ZM82.5881 11.2V10.45H83.3381V11.2H82.5881ZM84.4881 11.2V10.45H85.2381V11.2H84.4881ZM74.0381 11.2V10.45H74.7881V11.2H74.0381ZM74.9881 11.2V10.45H75.7381V11.2H74.9881ZM83.5381 11.2V10.45H84.2881V11.2H83.5381ZM84.4881 12.15V11.4H85.2381V12.15H84.4881ZM74.0381 12.15V11.4H74.7881V12.15H74.0381ZM83.5381 12.15V11.4H84.2881V12.15H83.5381ZM85.4381 12.15V11.4H86.1881V12.15H85.4381ZM74.9881 12.15V11.4H75.7381V12.15H74.9881ZM74.9881 13.1V12.35H75.7381V13.1H74.9881ZM85.4381 13.1V12.35H86.1881V13.1H85.4381ZM84.4881 13.1V12.35H85.2381V13.1H84.4881ZM74.0381 13.1V12.35H74.7881V13.1H74.0381ZM74.9881 14.05V13.3H75.7381V14.05H74.9881ZM85.4381 14.05V13.3H86.1881V14.05H85.4381ZM84.4881 14.05V13.3H85.2381V14.05H84.4881ZM74.0381 14.05V13.3H74.7881V14.05H74.0381ZM74.9881 15V14.25H75.7381V15H74.9881ZM85.4381 15V14.25H86.1881V15H85.4381ZM84.4881 15V14.25H85.2381V15H84.4881ZM74.0381 15V14.25H74.7881V15H74.0381ZM85.4381 15.95V15.2H86.1881V15.95H85.4381ZM74.0381 15.95V15.2H74.7881V15.95H74.0381ZM84.4881 15.95V15.2H85.2381V15.95H84.4881ZM74.9881 15.95V15.2H75.7381V15.95H74.9881ZM74.0381 16.9V16.15H74.7881V16.9H74.0381ZM84.4881 16.9V16.15H85.2381V16.9H84.4881ZM74.9881 16.9V16.15H75.7381V16.9H74.9881ZM85.4381 16.9V16.15H86.1881V16.9H85.4381ZM74.0381 17.85V17.1H74.7881V17.85H74.0381ZM85.4381 17.85V17.1H86.1881V17.85H85.4381ZM74.9881 17.85V17.1H75.7381V17.85H74.9881ZM84.4881 17.85V17.1H85.2381V17.85H84.4881Z" fill="white"/>
<path d="M96.6502 0.750001V0H97.4002V0.750001H96.6502ZM95.7002 0.750001V0H96.4502V0.750001H95.7002ZM95.7002 1.7V0.950001H96.4502V1.7H95.7002ZM96.6502 1.7V0.950001H97.4002V1.7H96.6502ZM95.7002 2.65V1.9H96.4502V2.65H95.7002ZM94.7502 2.65V1.9H95.5002V2.65H94.7502ZM97.6002 2.65V1.9H98.3502V2.65H97.6002ZM96.6502 2.65V1.9H97.4002V2.65H96.6502ZM97.6002 3.6V2.85H98.3502V3.6H97.6002ZM96.6502 3.6V2.85H97.4002V3.6H96.6502ZM95.7002 3.6V2.85H96.4502V3.6H95.7002ZM94.7502 3.6V2.85H95.5002V3.6H94.7502ZM94.7502 4.55V3.8H95.5002V4.55H94.7502ZM93.8002 4.55V3.8H94.5502V4.55H93.8002ZM97.6002 4.55V3.8H98.3502V4.55H97.6002ZM98.5502 4.55V3.8H99.3002V4.55H98.5502ZM94.7502 5.5V4.75H95.5002V5.5H94.7502ZM98.5502 5.5V4.75H99.3002V5.5H98.5502ZM93.8002 5.5V4.75H94.5502V5.5H93.8002ZM97.6002 5.5V4.75H98.3502V5.5H97.6002ZM98.5502 6.45V5.7H99.3002V6.45H98.5502ZM93.8002 6.45V5.7H94.5502V6.45H93.8002ZM94.7502 6.45V5.7H95.5002V6.45H94.7502ZM97.6002 6.45V5.7H98.3502V6.45H97.6002ZM93.8002 7.4V6.65H94.5502V7.4H93.8002ZM92.8502 7.4V6.65H93.6002V7.4H92.8502ZM98.5502 7.4V6.65H99.3002V7.4H98.5502ZM99.5002 7.4V6.65H100.25V7.4H99.5002ZM93.8002 8.35V7.6H94.5502V8.35H93.8002ZM99.5002 8.35V7.6H100.25V8.35H99.5002ZM92.8502 8.35V7.6H93.6002V8.35H92.8502ZM98.5502 8.35V7.6H99.3002V8.35H98.5502ZM99.5002 9.3V8.55H100.25V9.3H99.5002ZM98.5502 9.3V8.55H99.3002V9.3H98.5502ZM92.8502 9.3V8.55H93.6002V9.3H92.8502ZM93.8002 9.3V8.55H94.5502V9.3H93.8002ZM99.5002 10.25V9.5H100.25V10.25H99.5002ZM92.8502 10.25V9.5H93.6002V10.25H92.8502ZM91.9002 10.25V9.5H92.6502V10.25H91.9002ZM100.45 10.25V9.5H101.2V10.25H100.45ZM98.5502 11.2V10.45H99.3002V11.2H98.5502ZM97.6002 11.2V10.45H98.3502V11.2H97.6002ZM96.6502 11.2V10.45H97.4002V11.2H96.6502ZM100.45 11.2V10.45H101.2V11.2H100.45ZM95.7002 11.2V10.45H96.4502V11.2H95.7002ZM94.7502 11.2V10.45H95.5002V11.2H94.7502ZM93.8002 11.2V10.45H94.5502V11.2H93.8002ZM91.9002 11.2V10.45H92.6502V11.2H91.9002ZM92.8502 11.2V10.45H93.6002V11.2H92.8502ZM99.5002 11.2V10.45H100.25V11.2H99.5002ZM94.7502 12.15V11.4H95.5002V12.15H94.7502ZM91.9002 12.15V11.4H92.6502V12.15H91.9002ZM92.8502 12.15V11.4H93.6002V12.15H92.8502ZM93.8002 12.15V11.4H94.5502V12.15H93.8002ZM97.6002 12.15V11.4H98.3502V12.15H97.6002ZM98.5502 12.15V11.4H99.3002V12.15H98.5502ZM96.6502 12.15V11.4H97.4002V12.15H96.6502ZM100.45 12.15V11.4H101.2V12.15H100.45ZM99.5002 12.15V11.4H100.25V12.15H99.5002ZM95.7002 12.15V11.4H96.4502V12.15H95.7002ZM100.45 13.1V12.35H101.2V13.1H100.45ZM91.9002 13.1V12.35H92.6502V13.1H91.9002ZM101.4 13.1V12.35H102.15V13.1H101.4ZM90.9502 13.1V12.35H91.7002V13.1H90.9502ZM101.4 14.05V13.3H102.15V14.05H101.4ZM91.9002 14.05V13.3H92.6502V14.05H91.9002ZM100.45 14.05V13.3H101.2V14.05H100.45ZM90.9502 14.05V13.3H91.7002V14.05H90.9502ZM101.4 15V14.25H102.15V15H101.4ZM90.9502 15V14.25H91.7002V15H90.9502ZM91.9002 15V14.25H92.6502V15H91.9002ZM100.45 15V14.25H101.2V15H100.45ZM102.35 15.95V15.2H103.1V15.95H102.35ZM90.9502 15.95V15.2H91.7002V15.95H90.9502ZM101.4 15.95V15.2H102.15V15.95H101.4ZM90.0002 15.95V15.2H90.7502V15.95H90.0002ZM102.35 16.9V16.15H103.1V16.9H102.35ZM101.4 16.9V16.15H102.15V16.9H101.4ZM90.9502 16.9V16.15H91.7002V16.9H90.9502ZM90.0002 16.9V16.15H90.7502V16.9H90.0002ZM102.35 17.85V17.1H103.1V17.85H102.35ZM90.0002 17.85V17.1H90.7502V17.85H90.0002ZM101.4 17.85V17.1H102.15V17.85H101.4ZM90.9502 17.85V17.1H91.7002V17.85H90.9502Z" fill="white"/>
<path d="M105.956 0.750001V0H106.706V0.750001H105.956ZM110.706 0.750001V0H111.456V0.750001H110.706ZM116.406 0.750001V0H117.156V0.750001H116.406ZM108.806 0.750001V0H109.556V0.750001H108.806ZM107.856 0.750001V0H108.606V0.750001H107.856ZM106.906 0.750001V0H107.656V0.750001H106.906ZM105.006 0.750001V0H105.756V0.750001H105.006ZM109.756 0.750001V0H110.506V0.750001H109.756ZM115.456 0.750001V0H116.206V0.750001H115.456ZM114.506 0.750001V0H115.256V0.750001H114.506ZM113.556 0.750001V0H114.306V0.750001H113.556ZM112.606 0.750001V0H113.356V0.750001H112.606ZM111.656 0.750001V0H112.406V0.750001H111.656ZM104.056 0.750001V0H104.806V0.750001H104.056ZM105.006 1.7V0.950001H105.756V1.7H105.006ZM113.556 1.7V0.950001H114.306V1.7H113.556ZM106.906 1.7V0.950001H107.656V1.7H106.906ZM107.856 1.7V0.950001H108.606V1.7H107.856ZM108.806 1.7V0.950001H109.556V1.7H108.806ZM111.656 1.7V0.950001H112.406V1.7H111.656ZM112.606 1.7V0.950001H113.356V1.7H112.606ZM110.706 1.7V0.950001H111.456V1.7H110.706ZM105.956 1.7V0.950001H106.706V1.7H105.956ZM114.506 1.7V0.950001H115.256V1.7H114.506ZM104.056 1.7V0.950001H104.806V1.7H104.056ZM109.756 1.7V0.950001H110.506V1.7H109.756ZM116.406 1.7V0.950001H117.156V1.7H116.406ZM115.456 1.7V0.950001H116.206V1.7H115.456ZM110.706 2.65V1.9H111.456V2.65H110.706ZM109.756 2.65V1.9H110.506V2.65H109.756ZM110.706 3.6V2.85H111.456V3.6H110.706ZM109.756 3.6V2.85H110.506V3.6H109.756ZM110.706 4.55V3.8H111.456V4.55H110.706ZM109.756 4.55V3.8H110.506V4.55H109.756ZM110.706 5.5V4.75H111.456V5.5H110.706ZM109.756 5.5V4.75H110.506V5.5H109.756ZM110.706 6.45V5.7H111.456V6.45H110.706ZM109.756 6.45V5.7H110.506V6.45H109.756ZM109.756 7.4V6.65H110.506V7.4H109.756ZM110.706 7.4V6.65H111.456V7.4H110.706ZM110.706 8.35V7.6H111.456V8.35H110.706ZM109.756 8.35V7.6H110.506V8.35H109.756ZM109.756 9.3V8.55H110.506V9.3H109.756ZM110.706 9.3V8.55H111.456V9.3H110.706ZM110.706 10.25V9.5H111.456V10.25H110.706ZM109.756 10.25V9.5H110.506V10.25H109.756ZM110.706 11.2V10.45H111.456V11.2H110.706ZM109.756 11.2V10.45H110.506V11.2H109.756ZM110.706 12.15V11.4H111.456V12.15H110.706ZM109.756 12.15V11.4H110.506V12.15H109.756ZM110.706 13.1V12.35H111.456V13.1H110.706ZM109.756 13.1V12.35H110.506V13.1H109.756ZM110.706 14.05V13.3H111.456V14.05H110.706ZM109.756 14.05V13.3H110.506V14.05H109.756ZM110.706 15V14.25H111.456V15H110.706ZM109.756 15V14.25H110.506V15H109.756ZM110.706 15.95V15.2H111.456V15.95H110.706ZM109.756 15.95V15.2H110.506V15.95H109.756ZM110.706 16.9V16.15H111.456V16.9H110.706ZM109.756 16.9V16.15H110.506V16.9H109.756ZM110.706 17.85V17.1H111.456V17.85H110.706ZM109.756 17.85V17.1H110.506V17.85H109.756Z" fill="white"/>
<path d="M131.416 0.750001V0H132.166V0.750001H131.416ZM120.966 0.750001V0H121.716V0.750001H120.966ZM121.916 0.750001V0H122.666V0.750001H121.916ZM130.466 0.750001V0H131.216V0.750001H130.466ZM122.866 0.750001V0H123.616V0.750001H122.866ZM123.816 0.750001V0H124.566V0.750001H123.816ZM124.766 0.750001V0H125.516V0.750001H124.766ZM125.716 0.750001V0H126.466V0.750001H125.716ZM126.666 0.750001V0H127.416V0.750001H126.666ZM127.616 0.750001V0H128.366V0.750001H127.616ZM128.566 0.750001V0H129.316V0.750001H128.566ZM129.516 0.750001V0H130.266V0.750001H129.516ZM120.966 1.7V0.950001H121.716V1.7H120.966ZM129.516 1.7V0.950001H130.266V1.7H129.516ZM130.466 1.7V0.950001H131.216V1.7H130.466ZM128.566 1.7V0.950001H129.316V1.7H128.566ZM127.616 1.7V0.950001H128.366V1.7H127.616ZM126.666 1.7V0.950001H127.416V1.7H126.666ZM121.916 1.7V0.950001H122.666V1.7H121.916ZM131.416 1.7V0.950001H132.166V1.7H131.416ZM122.866 1.7V0.950001H123.616V1.7H122.866ZM123.816 1.7V0.950001H124.566V1.7H123.816ZM124.766 1.7V0.950001H125.516V1.7H124.766ZM125.716 1.7V0.950001H126.466V1.7H125.716ZM120.966 2.65V1.9H121.716V2.65H120.966ZM121.916 2.65V1.9H122.666V2.65H121.916ZM120.966 3.6V2.85H121.716V3.6H120.966ZM121.916 3.6V2.85H122.666V3.6H121.916ZM121.916 4.55V3.8H122.666V4.55H121.916ZM120.966 4.55V3.8H121.716V4.55H120.966ZM121.916 5.5V4.75H122.666V5.5H121.916ZM120.966 5.5V4.75H121.716V5.5H120.966ZM121.916 6.45V5.7H122.666V6.45H121.916ZM120.966 6.45V5.7H121.716V6.45H120.966ZM121.916 7.4V6.65H122.666V7.4H121.916ZM120.966 7.4V6.65H121.716V7.4H120.966ZM127.616 8.35V7.6H128.366V8.35H127.616ZM128.566 8.35V7.6H129.316V8.35H128.566ZM129.516 8.35V7.6H130.266V8.35H129.516ZM130.466 8.35V7.6H131.216V8.35H130.466ZM125.716 8.35V7.6H126.466V8.35H125.716ZM124.766 8.35V7.6H125.516V8.35H124.766ZM123.816 8.35V7.6H124.566V8.35H123.816ZM122.866 8.35V7.6H123.616V8.35H122.866ZM131.416 8.35V7.6H132.166V8.35H131.416ZM126.666 8.35V7.6H127.416V8.35H126.666ZM121.916 8.35V7.6H122.666V8.35H121.916ZM120.966 8.35V7.6H121.716V8.35H120.966ZM131.416 9.3V8.55H132.166V9.3H131.416ZM130.466 9.3V8.55H131.216V9.3H130.466ZM129.516 9.3V8.55H130.266V9.3H129.516ZM128.566 9.3V8.55H129.316V9.3H128.566ZM127.616 9.3V8.55H128.366V9.3H127.616ZM126.666 9.3V8.55H127.416V9.3H126.666ZM125.716 9.3V8.55H126.466V9.3H125.716ZM124.766 9.3V8.55H125.516V9.3H124.766ZM123.816 9.3V8.55H124.566V9.3H123.816ZM122.866 9.3V8.55H123.616V9.3H122.866ZM120.966 9.3V8.55H121.716V9.3H120.966ZM121.916 9.3V8.55H122.666V9.3H121.916ZM120.966 10.25V9.5H121.716V10.25H120.966ZM121.916 10.25V9.5H122.666V10.25H121.916ZM120.966 11.2V10.45H121.716V11.2H120.966ZM121.916 11.2V10.45H122.666V11.2H121.916ZM120.966 12.15V11.4H121.716V12.15H120.966ZM121.916 12.15V11.4H122.666V12.15H121.916ZM121.916 13.1V12.35H122.666V13.1H121.916ZM120.966 13.1V12.35H121.716V13.1H120.966ZM121.916 14.05V13.3H122.666V14.05H121.916ZM120.966 14.05V13.3H121.716V14.05H120.966ZM121.916 15V14.25H122.666V15H121.916ZM120.966 15V14.25H121.716V15H120.966ZM120.966 15.95V15.2H121.716V15.95H120.966ZM121.916 15.95V15.2H122.666V15.95H121.916ZM121.916 16.9V16.15H122.666V16.9H121.916ZM120.966 16.9V16.15H121.716V16.9H120.966ZM128.566 16.9V16.15H129.316V16.9H128.566ZM131.416 16.9V16.15H132.166V16.9H131.416ZM122.866 16.9V16.15H123.616V16.9H122.866ZM123.816 16.9V16.15H124.566V16.9H123.816ZM124.766 16.9V16.15H125.516V16.9H124.766ZM125.716 16.9V16.15H126.466V16.9H125.716ZM126.666 16.9V16.15H127.416V16.9H126.666ZM127.616 16.9V16.15H128.366V16.9H127.616ZM129.516 16.9V16.15H130.266V16.9H129.516ZM130.466 16.9V16.15H131.216V16.9H130.466ZM120.966 17.85V17.1H121.716V17.85H120.966ZM131.416 17.85V17.1H132.166V17.85H131.416ZM126.666 17.85V17.1H127.416V17.85H126.666ZM122.866 17.85V17.1H123.616V17.85H122.866ZM123.816 17.85V17.1H124.566V17.85H123.816ZM124.766 17.85V17.1H125.516V17.85H124.766ZM125.716 17.85V17.1H126.466V17.85H125.716ZM127.616 17.85V17.1H128.366V17.85H127.616ZM128.566 17.85V17.1H129.316V17.85H128.566ZM129.516 17.85V17.1H130.266V17.85H129.516ZM130.466 17.85V17.1H131.216V17.85H130.466ZM121.916 17.85V17.1H122.666V17.85H121.916Z" fill="white"/>
</g>
</svg>
